<?xml version="1.0" standalone="no"?>
<svg xmlns:xlink="http://www.w3.org/1999/xlink" id="wave" style="transform:rotate(180deg); transition: 0.3s" viewBox="0 0 1440 100" version="1.1" xmlns="http://www.w3.org/2000/svg"><defs><linearGradient id="sw-gradient-0" x1="0" x2="0" y1="1" y2="0"><stop stop-color="rgba(255, 249, 234, 1)" offset="0%"/><stop stop-color="rgba(255, 249, 234, 1)" offset="100%"/></linearGradient></defs><path style="transform:translate(0, 0px); opacity:1" fill="url(#sw-gradient-0)" d="M0,0L48,6.7C96,13,192,27,288,31.7C384,37,480,33,576,35C672,37,768,43,864,38.3C960,33,1056,17,1152,20C1248,23,1344,47,1440,55C1536,63,1632,57,1728,50C1824,43,1920,37,2016,30C2112,23,2208,17,2304,25C2400,33,2496,57,2592,61.7C2688,67,2784,53,2880,50C2976,47,3072,53,3168,58.3C3264,63,3360,67,3456,66.7C3552,67,3648,63,3744,58.3C3840,53,3936,47,4032,36.7C4128,27,4224,13,4320,21.7C4416,30,4512,60,4608,60C4704,60,4800,30,4896,21.7C4992,13,5088,27,5184,30C5280,33,5376,27,5472,35C5568,43,5664,67,5760,66.7C5856,67,5952,43,6048,33.3C6144,23,6240,27,6336,23.3C6432,20,6528,10,6624,8.3C6720,7,6816,13,6864,16.7L6912,20L6912,100L6864,100C6816,100,6720,100,6624,100C6528,100,6432,100,6336,100C6240,100,6144,100,6048,100C5952,100,5856,100,5760,100C5664,100,5568,100,5472,100C5376,100,5280,100,5184,100C5088,100,4992,100,4896,100C4800,100,4704,100,4608,100C4512,100,4416,100,4320,100C4224,100,4128,100,4032,100C3936,100,3840,100,3744,100C3648,100,3552,100,3456,100C3360,100,3264,100,3168,100C3072,100,2976,100,2880,100C2784,100,2688,100,2592,100C2496,100,2400,100,2304,100C2208,100,2112,100,2016,100C1920,100,1824,100,1728,100C1632,100,1536,100,1440,100C1344,100,1248,100,1152,100C1056,100,960,100,864,100C768,100,672,100,576,100C480,100,384,100,288,100C192,100,96,100,48,100L0,100Z"/></svg>